<?xml version="1.0" encoding="UTF-8" standalone="no"?><!DOCTYPE svg PUBLIC "-//W3C//DTD SVG 1.1//EN" "http://www.w3.org/Graphics/SVG/1.1/DTD/svg11.dtd"><svg width="100%" height="100%" viewBox="0 0 717 815" version="1.1" xmlns="http://www.w3.org/2000/svg" xmlns:xlink="http://www.w3.org/1999/xlink" xml:space="preserve" xmlns:serif="http://www.serif.com/" style="fill-rule:evenodd;clip-rule:evenodd;stroke-linejoin:round;stroke-miterlimit:2;"><path d="M92.469,684.891c-17.75,-0 -32.188,-14.191 -32.188,-31.929l0,-560.728c0,-17.737 14.438,-32.165 32.188,-32.165l277.406,-0c8.5,-0 15.375,6.859 15.375,15.375l0,104.293c0,23.65 19.156,42.807 42.782,42.807l104.312,-0c8.5,-0 15.375,6.859 15.375,15.368l-0,222.779c5.906,-0.469 11.812,-0.707 17.719,-0.707c14.437,0 28.625,1.422 42.343,4.257l0,-239.1c0,-24.594 -9.468,-47.772 -26.718,-65.266l-133.157,-132.913c-17.499,-17.262 -40.656,-26.962 -65.281,-26.962l-290.156,0c-50.844,0 -92.469,41.628 -92.469,92.234l0,560.728c0,50.85 41.625,92.235 92.469,92.235l286.844,-0c-8.281,-18.684 -13.938,-39.025 -16.313,-60.306l-270.531,-0Z" style="fill:#203a72;fill-rule:nonzero;"/><path d="M129.594,584.144c0,16.553 13.469,30.034 30.031,30.034l208.344,0c5.437,-21.525 14.187,-41.622 26.031,-60.069l-234.375,0c-16.562,0 -30.031,13.475 -30.031,30.035Z" style="fill:#203a72;fill-rule:nonzero;"/><path d="M448.375,423.459l-288.718,0c-16.626,0 -30.126,13.488 -30.126,30.116c0,16.628 13.5,30.116 30.126,30.116l288.718,-0c16.656,-0 30.125,-13.488 30.125,-30.116c-0,-16.628 -13.469,-30.116 -30.125,-30.116Z" style="fill:#203a72;fill-rule:nonzero;"/><path d="M448.375,292.881l-288.718,0c-16.626,0 -30.126,13.482 -30.126,30.109c0,16.635 13.5,30.116 30.126,30.116l288.718,0c16.656,0 30.125,-13.481 30.125,-30.116c-0,-16.627 -13.469,-30.109 -30.125,-30.109Z" style="fill:#203a72;fill-rule:nonzero;"/><path d="M159.657,222.522l134.562,-0c16.625,-0 30.125,-13.485 30.125,-30.119c-0,-16.628 -13.5,-30.109 -30.125,-30.109l-134.562,-0c-16.626,-0 -30.126,13.481 -30.126,30.109c0,16.634 13.5,30.119 30.126,30.119Z" style="fill:#203a72;fill-rule:nonzero;"/><path d="M640.281,639.388l-76.281,81.9c-3.906,4.221 -9.437,6.625 -15.188,6.625c-5.749,-0 -11.281,-2.41 -15.218,-6.629l-43.062,-46.262c-7.813,-8.406 -7.345,-21.547 1.062,-29.363c8.406,-7.797 21.563,-7.356 29.375,1.057l27.843,29.918l61.063,-65.571c7.813,-8.397 21,-8.841 29.375,-1.054c8.406,7.825 8.875,20.972 1.031,29.379Zm-74.875,-127.3c-83.531,-0 -151.25,67.721 -151.25,151.256c0,83.54 67.719,151.256 151.25,151.256c83.563,-0 151.282,-67.716 151.282,-151.256c-0,-83.535 -67.719,-151.256 -151.282,-151.256Z" style="fill:#14a0de;fill-rule:nonzero;"/></svg>