<?xml version="1.0" encoding="UTF-8" standalone="no"?><!DOCTYPE svg PUBLIC "-//W3C//DTD SVG 1.1//EN" "http://www.w3.org/Graphics/SVG/1.1/DTD/svg11.dtd"><svg width="100%" height="100%" viewBox="0 0 2869 3331" version="1.1" xmlns="http://www.w3.org/2000/svg" xmlns:xlink="http://www.w3.org/1999/xlink" xml:space="preserve" xmlns:serif="http://www.serif.com/" style="fill-rule:evenodd;clip-rule:evenodd;stroke-linejoin:round;stroke-miterlimit:2;"><path d="M2370.96,2492.5c0,48.32 -39.062,87.409 -87.369,87.409l-287.76,0c-55.73,0 -97.006,-51.393 -85.678,-105.417l20.313,-92.681c7.421,-35.131 35.546,-61.927 71.093,-67.645l267.97,-43.476c53.124,-8.788 101.431,32.5 101.431,86.095l0,135.715Zm-1498.31,87.409l-287.63,0c-47.918,0 -87.371,-39.089 -87.371,-87.409l-0,-135.715c-0,-53.595 48.308,-94.883 101.433,-86.095l267.968,43.476c35.546,5.718 64.063,32.514 71.484,67.645l19.792,92.681c11.458,54.024 -29.817,105.417 -85.676,105.417Zm1854.04,-841.576l-180.468,0l-116.798,-364.127c-60.157,-187.122 -232.422,-312.748 -429.167,-312.748l-248.176,-0l0,283.75l248.176,-0c72.527,-0 136.589,46.992 158.984,115.963l135.678,424.298c6.641,19.336 -7.812,39.101 -28.515,39.101l-1664.32,-0c-20.181,-0 -34.636,-19.765 -28.515,-39.101l136.198,-424.298c22.004,-68.971 86.067,-115.963 158.594,-115.963l248.176,-0l0,-283.75l-248.176,-0c-196.355,-0 -369.011,125.626 -429.168,312.748l-116.405,364.127l-180.99,0c-78.125,0 -141.797,63.685 -141.797,141.862l-0,80.39c-0,78.19 63.672,141.877 141.797,141.877l51.042,-0c-29.037,130.884 -44.401,264.856 -44.401,399.699l-0,686.537c-0,78.19 63.672,141.875 141.797,141.875l237.63,0c78.645,0 141.927,-63.685 141.927,-141.875l0,-219.179l1529.04,-0l0,219.179c0,78.19 63.672,141.875 141.797,141.875l237.63,0c78.647,0 141.928,-63.685 141.928,-141.875l-0,-686.537c-0,-134.843 -15.366,-268.815 -44.402,-399.699l50.912,-0c78.255,-0 141.928,-63.687 141.928,-141.877l-0,-80.39c-0,-78.177 -63.673,-141.862 -141.928,-141.862Z" style="fill:#203b72;fill-rule:nonzero;"/><path d="M1855.6,361.667c0,175.495 -104.688,325.912 -252.735,391.967l0,900.26c0,60.066 -48.698,108.764 -108.723,108.764l-119.532,-0c-60.026,-0 -108.724,-48.698 -108.724,-108.764l0,-900.651c-148.438,-66.457 -252.733,-216.485 -252.733,-391.576c-0,-145.637 73.177,-274.96 184.243,-353.359c29.038,-20.286 69.663,1.603 69.663,37.41l0,203.228c0,87.318 63.671,165.391 150.52,173.972c99.87,9.844 184.506,-68.346 184.506,-166.692l-0,-211.303c-0,-35.807 40.494,-57.487 69.791,-36.993c110.677,77.24 183.724,206.771 183.724,353.737Z" style="fill:#169fda;fill-rule:nonzero;"/></svg>