<?xml version="1.0" encoding="UTF-8" standalone="no"?><!DOCTYPE svg PUBLIC "-//W3C//DTD SVG 1.1//EN" "http://www.w3.org/Graphics/SVG/1.1/DTD/svg11.dtd"><svg width="100%" height="100%" viewBox="0 0 782 814" version="1.1" xmlns="http://www.w3.org/2000/svg" xmlns:xlink="http://www.w3.org/1999/xlink" xml:space="preserve" xmlns:serif="http://www.serif.com/" style="fill-rule:evenodd;clip-rule:evenodd;stroke-linejoin:round;stroke-miterlimit:2;"><path d="M760.884,198.219l-177.594,-177.594c-13.375,-13.375 -30.718,-20.625 -49.531,-20.625l-290.468,0c-53.875,0 -98.001,44.125 -98.001,98.031l0,201.469l55.344,-0l-0,-201.844c-0,-23.125 18.781,-41.937 41.937,-41.937l257.188,-0l-0,175.406c-0,27.844 22.781,51 50.625,51l175.438,-0l-0,410.187c-0,23.157 -18.813,42.313 -42.313,42.313l-366.062,-0l-45.938,55.344l412,-0c54.25,-0 98,-43.782 98,-97.657l0,-444.187c0,-19.156 -7.219,-36.5 -20.625,-49.906Z" style="fill:#203a72;fill-rule:nonzero;"/><path d="M650.228,635.531c-0,15.188 -12.656,27.469 -27.876,27.469l-245.218,-0c12.656,-15.906 18.812,-35.813 17,-55.344l228.218,0c15.22,0 27.876,12.313 27.876,27.875Z" style="fill:#203a72;fill-rule:nonzero;"/><path d="M650.228,508.187c-0,15.563 -12.656,27.875 -27.876,27.875l-316.468,0l-0,-55.343l316.468,-0c15.22,-0 27.876,12.281 27.876,27.468Z" style="fill:#203a72;fill-rule:nonzero;"/><path d="M650.228,381.25c-0,15.187 -12.656,27.844 -27.876,27.844l-316.468,-0l-0,-31.844c-0,-7.938 -1.094,-15.906 -3.625,-23.125c0.719,-0.375 1.437,-0.375 2.156,-0.375l317.937,-0c15.22,-0 27.876,12.281 27.876,27.5Z" style="fill:#203a72;fill-rule:nonzero;"/><path d="M316.259,590.875l-64.656,-0l-0,-213.531c-0,-13.094 -10.625,-23.719 -23.751,-23.719l-115.687,0c-13.094,0 -23.718,10.625 -23.718,23.719l-0,213.531l-64.656,-0c-20.126,-0 -31.126,23.469 -18.251,38.937l146.25,175.313c9.501,11.375 26.969,11.375 36.469,-0l146.219,-175.313c12.906,-15.468 1.906,-38.937 -18.219,-38.937Z" style="fill:#14a0de;fill-rule:nonzero;"/></svg>