<?xml version="1.0" encoding="UTF-8" standalone="no"?><!DOCTYPE svg PUBLIC "-//W3C//DTD SVG 1.1//EN" "http://www.w3.org/Graphics/SVG/1.1/DTD/svg11.dtd"><svg width="100%" height="100%" viewBox="0 0 2697 2890" version="1.1" xmlns="http://www.w3.org/2000/svg" xmlns:xlink="http://www.w3.org/1999/xlink" xml:space="preserve" xmlns:serif="http://www.serif.com/" style="fill-rule:evenodd;clip-rule:evenodd;stroke-linejoin:round;stroke-miterlimit:2;"><path d="M1965.24,2414.32c-1.043,19.661 -17.058,35.156 -36.068,35.677l-234.115,10.547c-25.52,0.911 -44.533,-23.047 -38.023,-47.656l14.455,-56.641c3.516,-13.021 14.063,-23.568 27.084,-27.083c43.618,-11.589 144.399,-38.021 216.014,-57.682c22.135,-6.511 44.664,8.072 48.176,31.119c5.471,36.068 4.559,81.641 2.477,111.719Zm-444.012,6.12c-0,12.5 -10.548,22.526 -22.656,22.526l-300.652,-0c-12.5,-0 -22.526,-10.026 -22.526,-22.526l-0,-43.099c-0,-12.63 10.026,-22.656 22.526,-22.656l300.652,-0c12.108,-0 22.656,10.026 22.656,22.656l-0,43.099Zm-520.312,40.104l-233.593,-10.547c-19.531,-0.521 -35.028,-16.016 -36.068,-35.677c-1.955,-30.078 -2.995,-75.651 2.473,-111.719c3.516,-23.047 25.651,-37.63 47.655,-31.119c71.615,19.661 172.396,46.093 216.017,57.682c13.542,3.515 23.569,14.062 27.084,27.083l14.973,56.641c6.511,24.609 -13.021,48.567 -38.541,47.656Zm-108.204,-652.604c11.978,-52.214 58.073,-88.802 112.241,-88.802l686.588,-0c53.645,-0 99.739,36.588 112.369,88.802l61.588,266.667l-1034.51,-0l61.719,-266.667Zm1237.5,195.443l-109.374,-0l-54.56,-233.073c-29.557,-127.735 -143.359,-218.49 -274.738,-218.49l-687.109,0c-130.86,0 -245.053,90.755 -274.741,218.49l-54.035,233.073l-109.247,-0c-40.102,-0 -72.784,32.552 -72.784,72.656l-0,93.229c-0,36.068 26.563,66.667 62.758,72.135l58.594,8.073c-7.029,23.568 -11.066,47.657 -11.066,73.177l-0,494.141c-0,40.104 32.682,72.787 72.657,72.787l162.891,-0c42.705,-0 79.295,-30.079 87.239,-71.745l29.557,-152.344l783.984,-0l29.558,152.344c8.071,41.666 44.66,71.745 86.717,71.745l163.413,-0c40.105,-0 72.657,-32.683 72.657,-72.787l-0,-494.141c-0,-25.52 -4.037,-49.609 -11.069,-73.177l58.724,-8.073c36.068,-5.468 62.631,-36.067 62.631,-72.135l-0,-93.229c-0,-40.104 -32.552,-72.656 -72.657,-72.656Z" style="fill:#203b72;fill-rule:nonzero;"/><path d="M2441.54,1201.82l-2185.68,0l0,-857.031c0,-50 40.624,-90.495 90.625,-90.495l2004.43,-0c50.001,-0 90.625,40.495 90.625,90.495l-0,857.031Zm163.672,-1201.82l-2513.93,0c-50.258,0 -91.276,41.146 -91.276,91.407l-0,2706.9c-0,50.131 41.018,91.277 91.276,91.277l74.87,-0c49.61,-0 89.715,-40.235 89.715,-89.714l0,-1415.37l2185.68,0l-0,1415.37c-0,49.479 40.105,89.714 89.715,89.714l73.957,-0c50.262,-0 91.407,-41.146 91.407,-91.277l-0,-2706.9c-0,-50.261 -41.145,-91.407 -91.407,-91.407Z" style="fill:#203b72;fill-rule:nonzero;"/><path d="M2139.85,825l-1582.42,0c-50.52,0 -91.407,40.885 -91.407,91.406c0,50.521 40.887,91.276 91.407,91.276l1582.42,0c50.392,0 91.276,-40.755 91.276,-91.276c0,-50.521 -40.884,-91.406 -91.276,-91.406Z" style="fill:#169fda;fill-rule:nonzero;"/><path d="M2139.85,448.308l-1582.42,-0c-50.52,-0 -91.407,40.885 -91.407,91.275c0,50.521 40.887,91.407 91.407,91.407l1582.42,-0c50.392,-0 91.276,-40.886 91.276,-91.407c0,-50.39 -40.884,-91.275 -91.276,-91.275Z" style="fill:#169fda;fill-rule:nonzero;"/></svg>