<?xml version="1.0" encoding="UTF-8" standalone="no"?><!DOCTYPE svg PUBLIC "-//W3C//DTD SVG 1.1//EN" "http://www.w3.org/Graphics/SVG/1.1/DTD/svg11.dtd"><svg width="100%" height="100%" viewBox="0 0 2981 2940" version="1.1" xmlns="http://www.w3.org/2000/svg" xmlns:xlink="http://www.w3.org/1999/xlink" xml:space="preserve" xmlns:serif="http://www.serif.com/" style="fill-rule:evenodd;clip-rule:evenodd;stroke-linejoin:round;stroke-miterlimit:2;"><path d="M2777.6,1001.69l-145.572,-138.098l-0,-177.97l145.572,149.35l-0,166.718Zm-792.577,0l-1163.54,0l0,-798.867l1163.54,-0l0,798.867Zm965.624,-282.473l-398.178,-405.626c-19.919,-18.659 -44.791,-28.62 -72.263,-28.62c-27.345,-0 -53.387,9.961 -72.136,28.62c-39.844,39.792 -39.844,104.505 0,144.362l138.149,139.324l0,283.75c0,9.908 3.777,18.658 9.896,23.632l221.485,209.023l-0,614.765c-0,55.965 -45.964,102.02 -101.951,102.02c-55.99,-0 -102.085,-46.055 -102.085,-102.02c0,-195.403 -159.244,-354.66 -360.806,-354.66l-24.872,0l-0,-1272.98c-0,-56.028 -46.091,-100.808 -102.081,-100.808l-1365.11,0c-55.99,0 -102.084,44.78 -102.084,100.808l-0,1241.88c67.32,26.132 124.48,74.674 161.851,136.901c151.822,250.09 405.598,708.034 405.598,965.599c-0,105.781 -23.569,206.588 -68.36,297.421l1124.87,0c80.859,0 148.045,-65.988 148.045,-148.073c0,-82.148 -67.186,-148.137 -148.045,-148.137l-54.69,-0l-0,-869.78l30.991,0c83.462,0 151.822,68.412 151.822,151.836c-0,167.944 136.979,303.62 304.95,303.62c167.967,0 304.816,-135.676 304.816,-303.62l0,-937.043c0,-27.344 -9.895,-53.463 -29.818,-72.187Z" style="fill:#203b72;fill-rule:nonzero;"/><path d="M440.493,2250.47c-4.556,7.383 -110.286,182.642 -33.853,296.314c13.8,19.779 18.75,44.193 14.191,68.738c-4.686,23.827 -18.489,44.687 -38.932,58.619c-15.364,10.247 -33.074,15.496 -51.171,15.496c-30.861,-0 -59.376,-15.261 -76.173,-40.64c-144.921,-215.052 22.265,-482.994 30.73,-496.223c13.151,-20.846 33.465,-35.391 57.551,-40.625c23.96,-5.365 48.437,-1.081 69.142,11.914c20.574,12.981 35.025,33.242 40.235,57.305c5.338,23.827 1.3,48.372 -11.72,69.102Zm52.344,-734.155c-46.355,0 -90.755,25.846 -114.845,66.719c-88.93,146.419 -377.992,642.891 -377.992,861.524c0,272.474 222.263,494.674 492.837,494.674c272.394,0 494.791,-222.2 494.791,-494.674c0,-218.633 -289.062,-715.105 -377.995,-861.524c-24.087,-40.873 -68.49,-66.719 -116.796,-66.719Z" style="fill:#169fda;fill-rule:nonzero;"/></svg>