<?xml version="1.0" encoding="UTF-8" standalone="no"?><!DOCTYPE svg PUBLIC "-//W3C//DTD SVG 1.1//EN" "http://www.w3.org/Graphics/SVG/1.1/DTD/svg11.dtd"><svg width="100%" height="100%" viewBox="0 0 697 824" version="1.1" xmlns="http://www.w3.org/2000/svg" xmlns:xlink="http://www.w3.org/1999/xlink" xml:space="preserve" xmlns:serif="http://www.serif.com/" style="fill-rule:evenodd;clip-rule:evenodd;stroke-linejoin:round;stroke-miterlimit:2;"><path d="M465.656,648.119l0,-173.769c0,-3.494 -2.847,-6.328 -6.343,-6.328l-135.126,-0c-3.468,-0 -6.312,2.834 -6.312,6.328l-0,173.769l-54.813,-0c-5.281,-0 -8.253,6.106 -4.968,10.259l128.683,162.722c2.532,3.206 7.41,3.206 9.942,0l128.688,-162.722c3.28,-4.153 0.343,-10.259 -4.97,-10.259l-54.781,-0Z" style="fill:#203a72;fill-rule:nonzero;"/><path d="M252.282,714.506l-113.657,0l0,-292.197l-51.25,0l-0,317.863c-0,14.119 11.469,25.606 25.593,25.606l179.876,0l-40.562,-51.272Zm436.406,-542.509l-164.563,-164.644c-4.938,-4.725 -11.376,-7.353 -18.062,-7.353l-393.095,0c-14.124,0 -25.593,11.488 -25.593,25.606l-0,104.703l51.25,0l0,-79.037l341.782,-0l-0,138.909c-0,14.116 11.531,25.603 25.656,25.603l138.78,0l0,498.722l-113.624,0l-40.535,51.272l179.815,0c14.125,0 25.689,-11.487 25.689,-25.606l-0,-549.991c-0,-6.828 -2.625,-13.259 -7.5,-18.184Z" style="fill:#203a72;fill-rule:nonzero;"/><path d="M105.063,241.678c-2.251,-1.319 -4.969,-2.253 -8.157,-2.768c-3.219,-0.529 -6.781,-0.738 -10.656,-0.738c-1.969,-0 -3.875,0.031 -5.781,0.144c-1.876,0.143 -3.5,0.225 -4.875,0.368l-0,34.36l8.406,-0c9.282,-0 16.282,-1.241 20.969,-3.781c4.688,-2.526 7.063,-7.222 7.063,-14.091c-0,-3.313 -0.626,-6.078 -1.813,-8.284c-1.219,-2.153 -2.938,-3.875 -5.156,-5.21Z" style="fill:#14a0de;fill-rule:nonzero;"/><path d="M197.437,238.172c-1.843,-0 -3.718,-0 -5.659,0.062c-1.966,0.082 -3.81,0.225 -5.496,0.45l-0,75.263c1.249,0.112 2.718,0.194 4.374,0.225c1.653,0.081 3.626,0.113 5.937,0.113c13.407,-0 23.31,-3.394 29.813,-10.135c6.465,-6.753 9.688,-16.084 9.688,-28.019c-0,-12.497 -3.098,-21.925 -9.285,-28.34c-6.188,-6.419 -15.965,-9.619 -29.372,-9.619Z" style="fill:#14a0de;fill-rule:nonzero;"/><path d="M365.871,239.216l-52.934,-0l0,24.9l47.095,-0l-0,22.503l-47.095,-0l0,49.156l-26.816,-0l0,-119.094l79.75,0l0,22.535Zm-106.906,63.922c-3.215,7.687 -7.747,14.025 -13.652,19.059c-5.906,5.037 -13.098,8.831 -21.594,11.341c-8.469,2.493 -17.969,3.765 -28.531,3.765c-4.813,0 -10.406,-0.194 -16.844,-0.597c-6.406,-0.368 -12.719,-1.19 -18.875,-2.459l-0,-116.038c6.156,-1.159 12.625,-1.897 19.312,-2.315c6.719,-0.403 12.469,-0.597 17.281,-0.597c10.189,-0 19.439,1.159 27.747,3.428c8.316,2.284 15.437,5.903 21.41,10.856c5.934,4.922 10.531,11.197 13.746,18.885c3.223,7.671 4.816,16.922 4.816,27.665c-0,10.294 -1.593,19.319 -4.816,27.007Zm-133.715,-16.794c-9.625,6.356 -23.375,9.556 -41.25,9.556l-8.406,-0l-0,39.875l-26.812,-0l-0,-117.372c5.843,-1.159 12.03,-1.947 18.562,-2.428c6.531,-0.453 12.25,-0.678 17.156,-0.678c17.781,-0 31.407,3.106 40.907,9.362c9.53,6.272 14.28,16.488 14.28,30.66c0,14.331 -4.812,24.687 -14.437,31.025Zm250.437,-116.632l-336.718,0c-21.531,0 -38.969,17.454 -38.969,38.976l0,135.225c0,21.521 17.438,38.975 38.969,38.975l336.718,-0c21.497,-0 38.97,-17.454 38.97,-38.975l-0,-135.225c-0,-21.522 -17.473,-38.976 -38.97,-38.976Z" style="fill:#14a0de;fill-rule:nonzero;"/></svg>