<?xml version="1.0" encoding="UTF-8" standalone="no"?><!DOCTYPE svg PUBLIC "-//W3C//DTD SVG 1.1//EN" "http://www.w3.org/Graphics/SVG/1.1/DTD/svg11.dtd"><svg width="100%" height="100%" viewBox="0 0 1001 807" version="1.1" xmlns="http://www.w3.org/2000/svg" xmlns:xlink="http://www.w3.org/1999/xlink" xml:space="preserve" xmlns:serif="http://www.serif.com/" style="fill-rule:evenodd;clip-rule:evenodd;stroke-linejoin:round;stroke-miterlimit:2;"><path d="M981.375,139.6c-181.906,-12.372 -232.688,-112.081 -234.906,-116.894c-6.625,-13.653 -20.688,-22.706 -36.188,-22.706c-15.312,0 -29.562,8.856 -36.187,22.706c-2.032,4.257 -52.469,104.522 -234.907,116.894c-10.718,0.741 -19,9.613 -19,20.325l0,44.306c35.625,16.447 61.657,49.504 68.126,89.197c4.437,26.041 5.531,50.604 3.125,73.325c-0.719,7.375 -1.844,14.95 -3.313,22.704l82.562,-0c-5.562,-15.329 -8.499,-31.938 -8.499,-49.304c-0,-81.621 66.281,-148.112 148.093,-148.112c81.813,-0 148.094,66.491 148.094,148.112c-0,81.8 -66.281,148.291 -148.094,148.291c-9.062,-0 -17.906,-0.741 -26.406,-2.397c0.375,2.019 0.375,4.056 0.375,6.075c-0,8.512 -0.937,16.809 -2.969,24.941c10.532,16.25 16.25,35.456 16.25,55.218c0,20.129 -5.718,39.154 -16.25,55.582c2.032,7.934 2.969,16.246 2.969,24.562c-0,6.834 -0.75,13.669 -2.031,20.125c11.062,5.538 18.281,8.675 19.937,9.413c2.594,1.118 5.344,1.659 8.125,1.659c2.781,-0 5.531,-0.541 8.125,-1.659c11.438,-4.976 281.969,-124.647 281.969,-342.369l-0,-179.669c-0,-10.712 -8.281,-19.584 -19,-20.325Z" style="fill:#14a0de;fill-rule:nonzero;"/><path d="M703.875,399.556l77.969,-77.959c8.656,-8.656 8.656,-22.688 -0,-31.344c-8.657,-8.656 -22.688,-8.656 -31.344,0l-62.281,62.288l-23.063,-23.063c-8.656,-8.656 -22.687,-8.656 -31.344,0c-8.656,8.656 -8.656,22.685 0,31.341l38.719,38.737c4.344,4.329 10,6.491 15.688,6.491c5.656,0 11.343,-2.162 15.656,-6.491Z" style="fill:#14a0de;fill-rule:nonzero;"/><path d="M594.656,592.138l-111.562,-0c-10.813,-0 -19.625,-8.819 -19.625,-19.8c-0,-10.822 8.812,-19.604 19.625,-19.604l111.562,0c10.813,0 19.781,8.782 19.781,19.604c0,10.981 -8.968,19.8 -19.781,19.8Zm-13.312,80.106l-84.938,-0c-10.812,-0 -19.781,-8.8 -19.781,-19.766c0,-10.818 8.969,-19.637 19.781,-19.637l84.938,-0c10.968,-0 19.781,8.819 19.781,19.637c-0,10.966 -8.813,19.766 -19.781,19.766Zm-11.313,80.141l-62.156,-0c-10.969,-0 -19.781,-8.982 -19.781,-19.801c-0,-10.784 8.812,-19.603 19.781,-19.603l62.156,0c10.813,0 19.625,8.819 19.625,19.603c0,10.819 -8.812,19.801 -19.625,19.801Zm-117.844,3.481c-38.906,6.331 -83.812,9.646 -133.5,9.646l-7.656,0c-33.094,-0.34 -63.5,-17.456 -81.125,-45.715l-10.625,-16.969c-3.687,-5.969 -10.156,-9.465 -17.312,-9.465l-41.563,-0l0,-165.569l16.469,-0c19.281,-0 37.562,-7.322 51.375,-20.45l68.5,-65.338c28.25,-26.94 47.531,-61.35 55.688,-99.418l12.468,-58.016c1.157,-5.156 5.969,-8.312 11.125,-7.644c15.469,2.488 27.781,14.788 30.438,30.585c2.969,18.446 3.812,35.418 2.156,50.369c-4.656,43.062 -21.625,84.793 -22.281,86.452c-2.656,6.313 -2,13.472 1.843,19.116c3.813,5.644 10.125,9.144 16.938,9.144l33.906,0l-0.969,4.487c-25.124,106.075 -110.75,98.088 -114.406,97.763c-5.469,-0.669 -10.781,0.828 -14.938,4.309c-4.343,3.338 -6.999,8.153 -7.656,13.453c-0.5,5.5 1.001,10.822 4.313,15.15c3.343,4.147 8.156,6.979 13.469,7.482c0.344,0.162 3.656,0.487 9.312,0.487c16.782,-0 59.032,-3.478 95.594,-34.243c2.156,14.965 10.156,28.762 22.094,38.068c-6.469,9.991 -9.782,21.278 -9.782,32.928c0,17.944 7.969,34.735 21.938,46.384c-7,10.135 -10.656,21.766 -10.656,33.722c-0,7.829 1.656,15.635 4.843,23.282Zm44.219,-283.272l84.938,0c10.968,0 19.781,8.815 19.781,19.6c-0,10.984 -8.813,19.803 -19.781,19.803l-84.938,-0c-10.812,-0 -19.781,-8.819 -19.781,-19.803c0,-10.785 8.969,-19.6 19.781,-19.6Zm-416.281,236.006c-13.75,0 -24.875,-11.128 -24.875,-25.031c-0,-13.741 11.125,-25.05 24.875,-25.05c13.906,-0 25.031,11.309 25.031,25.05c0,13.903 -11.125,25.031 -25.031,25.031Zm574.875,-136.262c-0,-18.469 -8.313,-35.563 -22.937,-47.213c6.312,-9.809 9.812,-21.119 9.812,-32.931c0,-33.234 -27.125,-60.341 -60.531,-60.341l-147.281,0c5.468,-17.618 12.312,-43.046 15.124,-69.644c2.001,-18.612 1.157,-39.243 -2.656,-61.515c-5.5,-32.928 -31.094,-58.519 -63.844,-64.019c-26.437,-4.309 -51.875,12.822 -57.531,39.241l-12.469,58.197c-6.468,30.096 -21.781,57.184 -44.062,78.462l-68.469,65.156c-6.343,5.988 -14.469,9.325 -23.281,9.325l-17.625,0c-3.156,-11.631 -13.781,-20.271 -26.594,-20.271l-104.906,-0c-15.281,-0 -27.75,12.281 -27.75,27.756l-0,232.075c-0,15.453 12.469,27.772 27.75,27.772l104.906,-0c12.813,-0 23.438,-8.657 26.594,-20.288l31.406,-0l4.656,7.303c25.125,40.072 68.188,64.344 115.219,64.85l11.656,0c43.688,0 108.376,-2.831 167.563,-16.303c6.468,2.163 12.281,3.175 18.125,3.175l62.156,0c33.25,0 60.375,-27.106 60.375,-60.541c0,-11.956 -3.687,-23.587 -10.656,-33.722c14.125,-11.649 22.125,-28.44 22.125,-46.384c0,-11.65 -3.5,-22.937 -9.812,-32.928c14.624,-11.472 22.937,-28.584 22.937,-47.212Z" style="fill:#203a72;fill-rule:nonzero;"/></svg>